<svg xmlns="http://www.w3.org/2000/svg" width="11.384" height="11.419" viewBox="0 0 11.384 11.419"><g transform="translate(-86 -264.672)"><g transform="translate(86 264.672)"><g transform="translate(0)"><path d="M11.008,69.134,9.659,67.778A1.277,1.277,0,0,0,8.64,67.4a1.256,1.256,0,0,0-.924.535l-.018.028-.221.373a5.421,5.421,0,0,1-2.349-1.3,5.415,5.415,0,0,1-1.284-2.356l.375-.218.029-.018a1.256,1.256,0,0,0,.541-.921,1.277,1.277,0,0,0-.368-1.021L3.071,61.151A1.264,1.264,0,0,0,1.6,60.906,2.9,2.9,0,0,0,.053,63.139c-.307,1.92.729,4.4,2.639,6.324a8.52,8.52,0,0,0,5.645,2.727A4.379,4.379,0,0,0,9,72.14a2.9,2.9,0,0,0,2.243-1.531h0A1.264,1.264,0,0,0,11.008,69.134Z" transform="translate(0 -60.77)"/></g></g></g></svg>