<svg xmlns="http://www.w3.org/2000/svg" width="11.039" height="10.552" viewBox="0 0 11.039 10.552"><g transform="translate(0 0.668)"><path d="M1.339-.668A1.235,1.235,0,0,0,0,.562a1.225,1.225,0,0,0,1.308,1.23h.015a1.234,1.234,0,1,0,.016-2.46Zm0,0" transform="translate(0 0)"/><path d="M8.109,198.313h2.366v7.119H8.109Zm0,0" transform="translate(-7.97 -195.549)"/><path d="M225.714,188.625a2.965,2.965,0,0,0-2.133,1.2v-1.032h-2.366v7.119h2.366v-3.976a1.622,1.622,0,0,1,.078-.578,1.3,1.3,0,0,1,1.214-.865c.856,0,1.2.653,1.2,1.61v3.809h2.366v-4.082C228.438,189.643,227.271,188.625,225.714,188.625Zm0,0" transform="translate(-217.399 -186.028)"/></g></svg>