<svg xmlns="http://www.w3.org/2000/svg" width="12.52" height="12.52" viewBox="0 0 12.52 12.52"><path d="M9.065,0H3.455A3.459,3.459,0,0,0,0,3.455v5.61A3.459,3.459,0,0,0,3.455,12.52h5.61A3.459,3.459,0,0,0,12.52,9.065V3.455A3.459,3.459,0,0,0,9.065,0Zm2.344,9.065a2.347,2.347,0,0,1-2.344,2.344H3.455A2.347,2.347,0,0,1,1.111,9.065V3.455A2.347,2.347,0,0,1,3.455,1.111h5.61a2.347,2.347,0,0,1,2.344,2.344v5.61Z"/><path d="M44.194,40.97A3.226,3.226,0,1,0,47.42,44.2,3.23,3.23,0,0,0,44.194,40.97Zm0,5.341A2.115,2.115,0,1,1,46.309,44.2,2.118,2.118,0,0,1,44.194,46.311Z" transform="translate(-37.934 -37.936)"/><path d="M119.736,28.251a.814.814,0,1,0,.576.238A.818.818,0,0,0,119.736,28.251Z" transform="translate(-110.114 -26.159)"/></svg>